<svg width="48" height="48" viewBox="0 0 48 48" fill="none" xmlns="http://www.w3.org/2000/svg">
<path d="M7.9 42V16.2L4 7.7L7.6 6L12.3 16.1H35.5L40.2 6L43.8 7.7L39.9 16.2V42H7.9ZM19.9 28H27.9C28.4667 28 28.9417 27.8083 29.325 27.425C29.7083 27.0417 29.9 26.5667 29.9 26C29.9 25.4333 29.7083 24.9583 29.325 24.575C28.9417 24.1917 28.4667 24 27.9 24H19.9C19.3333 24 18.8583 24.1917 18.475 24.575C18.0917 24.9583 17.9 25.4333 17.9 26C17.9 26.5667 18.0917 27.0417 18.475 27.425C18.8583 27.8083 19.3333 28 19.9 28ZM11.9 38H35.9V20.1H11.9V38Z" fill="black"/>
</svg>
